<?xml version="1.0" ?><!DOCTYPE svg  PUBLIC '-//W3C//DTD SVG 1.1//EN'  'http://www.w3.org/Graphics/SVG/1.1/DTD/svg11.dtd'><svg height="512px" style="enable-background:new 0 0 512 512;" version="1.1" viewBox="0 0 512 512" width="512px" xml:space="preserve" xmlns="http://www.w3.org/2000/svg" xmlns:xlink="http://www.w3.org/1999/xlink"><g id="_x34_79_x2C__bag_x2C__backbag_x2C__school_x2C__service"><g><path d="M95.21,487.49H62.45C39.72,487.49,21,468.77,21,446.04v-79.55c0-22.03,17.99-40.721,40-41.44    v127.58c0,16.101,10.58,29.44,24.89,33.55C88.86,487.03,91.98,487.49,95.21,487.49z" style="fill:#8FA3AD;"/><g><g><g><path d="M81.421,487.49H95.21c-3.23,0-6.35-0.46-9.32-1.311c-3.26-0.936-6.323-2.355-9.114-4.173       C78.137,483.997,79.693,485.836,81.421,487.49z" style="fill:#778D96;"/></g><g><path d="M30.667,455.5v-79.55c0-18.696,12.959-34.98,30.333-39.923V325.05       c-22.01,0.72-40,19.41-40,41.44v79.55c0,13.94,7.048,26.363,17.737,33.894C33.676,473.062,30.667,464.604,30.667,455.5z" style="fill:#778D96;"/></g></g></g><path d="M491,366.49v79.55c0,22.729-18.72,41.45-41.45,41.45h-32.76c0.54,0,1.08-0.021,1.62-0.04    c17.43-0.83,31.59-15,32.439-33.01c0.021-0.601,0.04-1.2,0.04-1.811V325.04C472.95,325.71,491,344.42,491,366.49z" style="fill:#8FA3AD;"/><path d="M454.37,487.196c3.593-5.202,5.825-11.468,6.146-18.286c0.021-0.601,0.04-1.2,0.04-1.811V339.51    c10.63,0.323,20.32,4.842,27.518,11.899c-5.965-14.916-20.41-25.859-37.185-26.369v127.59c0,0.61-0.02,1.21-0.04,1.811    c-0.85,18.01-15.01,32.18-32.439,33.01c-0.54,0.02-1.08,0.04-1.62,0.04h32.76C451.18,487.49,452.787,487.383,454.37,487.196z" style="fill:#778D96;"/><polygon points="171,374.51 381,374.51 381,432.67 131,432.67 131,374.51   " style="fill:#FFEBBE;"/><polygon points="139.5,383.59 179.5,383.59 381,383.59 381,374.51 171,374.51 131,374.51 131,432.67     139.5,432.67   " style="fill:#F0DCA0;"/><path d="M381,364.01v10.5H171h-40v-10.5c0-16.29,13.46-29.5,30.06-29.5H241h30h79.94    C367.54,334.51,381,347.72,381,364.01z" style="fill:#F96638;"/><path d="M137.333,372.177c0-16.29,13.46-29.5,30.06-29.5h79.94h30h79.94c7.87,0,15.031,2.973,20.391,7.833    c-4.994-9.499-15.083-16-26.724-16H271h-30h-79.94c-16.6,0-30.06,13.21-30.06,29.5v10.5h6.333V372.177z" style="fill:#EA562F;"/><rect height="70" style="fill:#3E3E3F;" width="30" x="241" y="264.51"/><polygon points="248.875,273.494 271,273.494 271,264.51 241,264.51 241,334.51 248.875,334.51   " style="fill:#2D2D2D;"/><path d="M450.89,452.63c0,0.61-0.02,1.21-0.04,1.811c-0.899,17.979-15.029,32.109-32.439,33.01    c-0.54,0.02-1.08,0.04-1.62,0.04c-0.04,0-0.09,0-0.13,0H95.22h-0.01c-3.23,0-6.35-0.46-9.32-1.311    c-14.24-4.109-24.78-17.41-24.78-33.449V325.04c-0.04,0-0.07,0-0.11,0.01V207.38h1.47c48.14,13.37,96.94,21.39,145.07,24.73v32.4    H241v70h-79.94c-16.6,0-30.06,13.21-30.06,29.5v10.5v58.16h250v-58.16v-10.5c0-16.29-13.46-29.5-30.06-29.5H271v-70h34.82v-32.4    c48.8-4.01,96.93-12.03,145.069-24.73v117.66V452.63z" style="fill:#57606F;"/><g><g><g><path d="M71.165,466.73V339.04c-0.04,0-0.07,0-0.11,0.01V221.38h1.47       c44.791,12.44,90.152,20.243,135.015,23.959V232.11c-48.13-3.34-96.93-11.36-145.07-24.73H61v117.67       c0.04-0.01,0.07-0.01,0.11-0.01v127.69c0,10.9,4.871,20.531,12.46,26.877C72.021,475.636,71.165,471.295,71.165,466.73z" style="fill:#414A56;"/></g></g></g><path d="M325.2,31.18v33.33H188.16V31.18c0-3.34,2.67-6.67,5.34-6.67h126.36    C322.53,24.51,325.2,27.84,325.2,31.18z" style="fill:#F96638;"/><path d="M196.035,39.055c0-3.34,2.67-6.67,5.34-6.67H325.2V31.18c0-3.34-2.67-6.67-5.34-6.67H193.5    c-2.67,0-5.34,3.33-5.34,6.67v33.33h7.875V39.055z" style="fill:#EA562F;"/><path d="M450.89,165.26v42.12c-48.14,12.7-96.27,20.72-145.069,24.73v-27.6v-13.85    C354.62,186.65,402.75,178.63,450.89,165.26z" style="fill:#F0F1F1;"/><path d="M313.987,211.91v-13.85c46.04-3.784,91.484-11.141,136.902-23.188v-9.612    c-48.14,13.37-96.27,21.39-145.069,25.4v13.85v27.6c2.725-0.224,5.446-0.465,8.167-0.714V211.91z" style="fill:#DEE0E0;"/><path d="M207.54,204.51v27.6c-48.13-3.34-96.93-11.36-145.07-24.73H61v-42.12h1.47    c48.14,14.04,96.94,22.06,145.07,25.4V204.51z" style="fill:#F0F1F1;"/><path d="M68.667,176.084h1.47c45.586,13.295,91.763,21.185,137.403,24.822V190.66    c-48.13-3.34-96.93-11.36-145.07-25.4H61v42.12h1.47c2.064,0.573,4.13,1.123,6.196,1.677V176.084z" style="fill:#DEE0E0;"/><polygon points="251,204.51 305.82,204.51 305.82,232.11 305.82,264.51 271,264.51 241,264.51     207.54,264.51 207.54,232.11 207.54,204.51   " style="fill:#E0F8FF;"/><polygon points="216.04,240.61 216.04,213.01 259.5,213.01 305.82,213.01 305.82,204.51 251,204.51     207.54,204.51 207.54,232.11 207.54,264.51 216.04,264.51   " style="fill:#CCE5E4;"/><polygon points="305.82,190.66 305.82,204.51 251,204.51 207.54,204.51 207.54,190.66 207.54,164.51     305.82,164.51   " style="fill:#3E3E3F;"/><polygon points="216.415,199.535 216.415,173.385 305.82,173.385 305.82,164.51 207.54,164.51     207.54,190.66 207.54,204.51 216.415,204.51   " style="fill:#2D2D2D;"/><path d="M450.89,98.7v66.56c-48.14,13.37-96.27,21.39-145.069,25.4v-26.15h-98.28v26.15    c-48.13-3.34-96.93-11.36-145.07-25.4H61V98.7c0-18.77,15.43-34.19,34.22-34.19h92.94H325.2h91.46    C435.45,64.51,450.89,79.93,450.89,98.7z" style="fill:#57606F;"/><g><g><g><path d="M71.5,109.543c0-18.77,15.43-34.19,34.22-34.19h92.94H335.7h91.46       c6.894,0,13.333,2.082,18.728,5.637c-6.032-9.853-16.909-16.48-29.228-16.48H325.2H188.16H95.22C76.43,64.51,61,79.93,61,98.7       v66.56h1.47c3.007,0.877,6.018,1.731,9.03,2.561V109.543z" style="fill:#414A56;"/></g></g></g><rect height="20" width="20" x="311" y="94.51"/><rect height="20" width="20" x="271" y="94.51"/><rect height="20" width="20" x="231" y="94.51"/><rect height="20" width="20" x="191" y="94.51"/><path d="M207.545,195.66c-0.116,0-0.233-0.004-0.351-0.012C156.352,192.12,107.189,183.51,61.07,170.06    c-2.651-0.773-4.173-3.549-3.4-6.2c0.773-2.651,3.551-4.173,6.2-3.4c45.433,13.25,93.887,21.733,144.016,25.212    c2.755,0.191,4.833,2.579,4.642,5.334C212.345,193.643,210.149,195.66,207.545,195.66z"/><path d="M305.814,195.661c-2.575,0-4.763-1.978-4.978-4.591c-0.226-2.752,1.821-5.167,4.574-5.393    c50.919-4.184,98.068-12.438,144.141-25.235c2.655-0.738,5.416,0.818,6.155,3.48c0.739,2.661-0.818,5.417-3.479,6.156    c-46.687,12.966-94.443,21.329-145.998,25.566C306.091,195.655,305.952,195.661,305.814,195.661z"/><path d="M207.545,237.11c-0.116,0-0.233-0.004-0.351-0.012c-49.895-3.462-99.038-11.84-146.062-24.9    c-2.661-0.739-4.219-3.495-3.48-6.156c0.739-2.661,3.496-4.218,6.156-3.48c46.377,12.881,94.853,21.144,144.078,24.56    c2.755,0.191,4.833,2.579,4.642,5.334C212.345,235.093,210.149,237.11,207.545,237.11z"/><path d="M305.814,237.11c-2.575,0-4.763-1.978-4.978-4.591c-0.226-2.752,1.822-5.167,4.574-5.393    c49.868-4.097,97.038-12.138,144.203-24.581c2.668-0.704,5.406,0.89,6.11,3.559c0.704,2.67-0.89,5.406-3.56,6.11    c-47.739,12.595-95.475,20.732-145.936,24.879C306.091,237.104,305.952,237.11,305.814,237.11z"/><path d="M305.82,269.51h-98.28c-2.761,0-5-2.238-5-5v-100c0-2.761,2.239-5,5-5h98.28c2.762,0,5,2.239,5,5v100    C310.82,267.271,308.582,269.51,305.82,269.51z M212.54,259.51h88.28v-90h-88.28V259.51z"/><path d="M381,437.67H131c-2.761,0-5-2.238-5-5v-68.66c0-19.023,15.728-34.5,35.06-34.5h189.88c19.332,0,35.06,15.477,35.06,34.5    v68.66C386,435.432,383.762,437.67,381,437.67z M136,427.67h240v-63.66c0-13.51-11.241-24.5-25.06-24.5H161.06    c-13.818,0-25.06,10.99-25.06,24.5V427.67z"/><path d="M325.2,69.51c-2.762,0-5-2.239-5-5V31.18c0-0.644-0.436-1.37-0.757-1.67H193.917c-0.321,0.3-0.757,1.027-0.757,1.67v33.33    c0,2.761-2.239,5-5,5s-5-2.239-5-5V31.18c0-6.108,4.928-11.67,10.34-11.67h126.36c5.411,0,10.34,5.563,10.34,11.67v33.33    C330.2,67.271,327.962,69.51,325.2,69.51z"/><path d="M418.406,492.45c-2.652,0-4.863-2.085-4.99-4.762c-0.132-2.759,1.998-5.102,4.756-5.232    c15.057-0.717,26.957-12.862,27.684-28.251c0.13-2.759,2.471-4.884,5.229-4.759c2.759,0.13,4.89,2.472,4.759,5.229    c-0.97,20.568-16.961,36.805-37.195,37.769C418.567,492.448,418.486,492.45,418.406,492.45z"/><path d="M449.55,492.49h-32.76c-2.762,0-5-2.238-5-5s2.238-5,5-5h32.76c20.099,0,36.45-16.352,36.45-36.45v-79.55    c0-19.51-15.818-35.862-35.262-36.452c-2.761-0.084-4.93-2.39-4.847-5.149c0.085-2.762,2.422-4.908,5.149-4.847    C475.832,320.795,496,341.632,496,366.49v79.55C496,471.652,475.162,492.49,449.55,492.49z"/><path d="M95.21,492.49H62.45c-25.613,0-46.45-20.838-46.45-46.45v-79.55c0-24.727,19.998-45.51,44.624-46.431    c0.23-0.02,0.402-0.02,0.486-0.02c2.761,0,5,2.238,5,5v127.69c0,13.27,8.704,25.049,21.167,28.646    c0.767,0.221,1.439,0.609,1.99,1.114h5.943c2.761,0,5,2.238,5,5S97.971,492.49,95.21,492.49z M56.11,330.576    C39.106,333.599,26,348.752,26,366.49v79.55c0,20.099,16.352,36.45,36.45,36.45h6.853c-8.172-7.393-13.193-18.152-13.193-29.76    V330.576z"/><path d="M416.79,492.49H95.22c-3.624,0-7.223-0.506-10.707-1.504C67.724,486.165,56,470.393,56,452.63V98.7    c0-21.61,17.594-39.19,39.22-39.19h321.44c21.631,0,39.229,17.581,39.229,39.19v353.93c0,0.668-0.021,1.324-0.043,1.98    c-1.027,20.56-17.01,36.79-37.179,37.833c-0.025,0.002-0.126,0.006-0.152,0.006C417.94,492.471,417.365,492.49,416.79,492.49z     M95.22,69.51C79.108,69.51,66,82.604,66,98.7v353.93c0,13.328,8.747,25.147,21.27,28.744c2.585,0.74,5.258,1.116,7.94,1.116    h321.58c0.454,0,0.909-0.018,1.363-0.034c15.025-0.776,26.936-12.928,27.702-28.266c0.016-0.465,0.034-1.008,0.034-1.561V98.7    c0-16.096-13.112-29.19-29.229-29.19H95.22z"/><path d="M271,339.51c-2.762,0-5-2.238-5-5v-70c0-2.762,2.238-5,5-5s5,2.238,5,5v70C276,337.271,273.762,339.51,271,339.51z"/><path d="M241,339.51c-2.761,0-5-2.238-5-5v-70c0-2.762,2.239-5,5-5s5,2.238,5,5v70C246,337.271,243.761,339.51,241,339.51z"/><path d="M305.82,209.51h-98.28c-2.761,0-5-2.239-5-5s2.239-5,5-5h98.28c2.762,0,5,2.239,5,5S308.582,209.51,305.82,209.51z"/><path d="M251,239.51c-2.761,0-5-2.239-5-5v-30c0-2.761,2.239-5,5-5s5,2.239,5,5v30C256,237.271,253.761,239.51,251,239.51z"/><path d="M381,379.51H131c-2.761,0-5-2.238-5-5s2.239-5,5-5h250c2.762,0,5,2.238,5,5S383.762,379.51,381,379.51z"/><path d="M171,409.51c-2.761,0-5-2.238-5-5v-30c0-2.762,2.239-5,5-5s5,2.238,5,5v30C176,407.271,173.761,409.51,171,409.51z"/></g></g><g id="Layer_1"/></svg>