<?xml version="1.0" encoding="UTF-8" standalone="no"?>
<!-- Created with Inkscape (http://www.inkscape.org/) -->

<svg
   width="64pt"
   height="64pt"
   viewBox="0 0 22.577778 22.577778"
   version="1.1"
   id="svg831"
   inkscape:version="1.1.1 (3bf5ae0d25, 2021-09-20)"
   sodipodi:docname="1 - Trophy.svg"
   inkscape:export-filename="C:\Users\User\Desktop\DESEMBER\3 - Pencil and Sharpener.png"
   inkscape:export-xdpi="576"
   inkscape:export-ydpi="576"
   xmlns:inkscape="http://www.inkscape.org/namespaces/inkscape"
   xmlns:sodipodi="http://sodipodi.sourceforge.net/DTD/sodipodi-0.dtd"
   xmlns="http://www.w3.org/2000/svg"
   xmlns:svg="http://www.w3.org/2000/svg"
   xmlns:rdf="http://www.w3.org/1999/02/22-rdf-syntax-ns#"
   xmlns:cc="http://creativecommons.org/ns#"
   xmlns:dc="http://purl.org/dc/elements/1.1/">
  <defs
     id="defs825">
    <pattern
       id="EMFhbasepattern"
       patternUnits="userSpaceOnUse"
       width="6"
       height="6"
       x="0"
       y="0" />
    <pattern
       id="EMFhbasepattern-9"
       patternUnits="userSpaceOnUse"
       width="6"
       height="6"
       x="0"
       y="0" />
    <pattern
       id="EMFhbasepattern-0"
       patternUnits="userSpaceOnUse"
       width="6"
       height="6"
       x="0"
       y="0" />
    <pattern
       id="EMFhbasepattern-7"
       patternUnits="userSpaceOnUse"
       width="6"
       height="6"
       x="0"
       y="0" />
    <pattern
       id="EMFhbasepattern-2"
       patternUnits="userSpaceOnUse"
       width="6"
       height="6"
       x="0"
       y="0" />
    <pattern
       id="EMFhbasepattern-98"
       patternUnits="userSpaceOnUse"
       width="6"
       height="6"
       x="0"
       y="0" />
    <pattern
       id="EMFhbasepattern-6"
       patternUnits="userSpaceOnUse"
       width="6"
       height="6"
       x="0"
       y="0" />
    <pattern
       id="EMFhbasepattern-01"
       patternUnits="userSpaceOnUse"
       width="6"
       height="6"
       x="0"
       y="0" />
    <pattern
       id="EMFhbasepattern-07"
       patternUnits="userSpaceOnUse"
       width="6"
       height="6"
       x="0"
       y="0" />
    <pattern
       id="EMFhbasepattern-8"
       patternUnits="userSpaceOnUse"
       width="6"
       height="6"
       x="0"
       y="0" />
    <pattern
       id="EMFhbasepattern-4"
       patternUnits="userSpaceOnUse"
       width="6"
       height="6"
       x="0"
       y="0" />
    <pattern
       id="EMFhbasepattern-40"
       patternUnits="userSpaceOnUse"
       width="6"
       height="6"
       x="0"
       y="0" />
    <pattern
       id="EMFhbasepattern-08"
       patternUnits="userSpaceOnUse"
       width="6"
       height="6"
       x="0"
       y="0" />
    <pattern
       id="EMFhbasepattern-04"
       patternUnits="userSpaceOnUse"
       width="6"
       height="6"
       x="0"
       y="0" />
    <pattern
       id="EMFhbasepattern-014"
       patternUnits="userSpaceOnUse"
       width="6"
       height="6"
       x="0"
       y="0" />
    <pattern
       id="EMFhbasepattern-27"
       patternUnits="userSpaceOnUse"
       width="6"
       height="6"
       x="0"
       y="0" />
    <pattern
       id="EMFhbasepattern-09"
       patternUnits="userSpaceOnUse"
       width="6"
       height="6"
       x="0"
       y="0" />
    <pattern
       id="EMFhbasepattern-5"
       patternUnits="userSpaceOnUse"
       width="6"
       height="6"
       x="0"
       y="0" />
    <pattern
       id="EMFhbasepattern-018"
       patternUnits="userSpaceOnUse"
       width="6"
       height="6"
       x="0"
       y="0" />
  </defs>
  <sodipodi:namedview
     id="base"
     pagecolor="#ffffff"
     bordercolor="#666666"
     borderopacity="1.0"
     inkscape:pageopacity="0.0"
     inkscape:pageshadow="2"
     inkscape:zoom="4.6006733"
     inkscape:cx="42.71114"
     inkscape:cy="42.71114"
     inkscape:document-units="pt"
     inkscape:current-layer="layer1"
     showgrid="false"
     units="pt"
     inkscape:window-width="958"
     inkscape:window-height="1003"
     inkscape:window-x="952"
     inkscape:window-y="0"
     inkscape:window-maximized="0"
     inkscape:pagecheckerboard="true"
     inkscape:showpageshadow="false"
     inkscape:object-paths="false"
     inkscape:snap-intersection-paths="true"
     inkscape:snap-smooth-nodes="true"
     inkscape:snap-midpoints="true"
     showguides="true"
     inkscape:snap-bbox="true"
     inkscape:bbox-nodes="true"
     inkscape:snap-nodes="false"
     inkscape:snap-global="true">
    <inkscape:grid
       type="xygrid"
       id="grid1378" />
    <sodipodi:guide
       position="0.97013831,21.607643"
       orientation="78.000048,0"
       id="guide1380"
       inkscape:locked="false" />
    <sodipodi:guide
       position="0.97013831,0.97013129"
       orientation="0,78.000005"
       id="guide1382"
       inkscape:locked="false" />
    <sodipodi:guide
       position="21.607639,0.97013129"
       orientation="-78.000048,0"
       id="guide1384"
       inkscape:locked="false" />
    <sodipodi:guide
       position="21.607639,21.607643"
       orientation="0,-78.000005"
       id="guide1386"
       inkscape:locked="false" />
  </sodipodi:namedview>
  <metadata
     id="metadata828">
    <rdf:RDF>
      <cc:Work
         rdf:about="">
        <dc:format>image/svg+xml</dc:format>
        <dc:type
           rdf:resource="http://purl.org/dc/dcmitype/StillImage" />
      </cc:Work>
    </rdf:RDF>
  </metadata>
  <g
     inkscape:label="Icon"
     inkscape:groupmode="layer"
     id="layer1"
     transform="translate(0,-274.42223)"
     style="display:inline">
    <g
       id="g1109"
       style="display:inline;stroke-width:0.794878"
       transform="matrix(1.2580546,0,0,1.2580546,-37.737155,-38.905056)">
      <g
         id="g46820"
         style="stroke-width:0.794878">
        <path
           style="color:#000000;fill:#3a4d5c;fill-opacity:1;stroke-width:0.794878;stroke-linecap:round;stroke-linejoin:round;-inkscape-stroke:none"
           d="m 37.283199,262.13086 h 8.037109 c 0.145408,-5.1e-4 0.263156,-0.11826 0.263672,-0.26367 v -8.73242 c 0,-0.72749 -0.594772,-1.32227 -1.322265,-1.32227 H 33.677734 c -0.727493,0 -1.322265,0.59478 -1.322265,1.32227 v 2.51367 z"
           id="path190027"
           sodipodi:nodetypes="cccsssscc" />
        <path
           style="color:#000000;fill:#a7e3fa;stroke-width:0.794878;stroke-linecap:round;stroke-linejoin:round;-inkscape-stroke:none"
           d="M 38.308597,261.07227 H 43.4668 c 0.581371,0 1.058594,-0.47528 1.058594,-1.05665 v -6.08593 c 0,-0.58136 -0.477223,-1.0586 -1.058594,-1.0586 h -8.996097 c -0.581367,0 -1.05664,0.47723 -1.056641,1.0586 v 1.7207 z"
           id="path190219"
           sodipodi:nodetypes="csssssscc" />
        <path
           style="color:#000000;fill:#dc1c4b;fill-opacity:1;stroke-width:0.794878;stroke-linecap:round;stroke-linejoin:round;-inkscape-stroke:none"
           d="m 31.031181,255.38393 a 0.2645835,0.2645835 0 0 0 -0.263549,0.26562 0.2645835,0.2645835 0 0 0 0.263549,0.26406 h 0.265618 v 1.85157 h -0.265618 a 0.2645835,0.2645835 0 0 0 -0.263549,0.26562 0.2645835,0.2645835 0 0 0 0.263549,0.26355 h 0.529166 3.560506 1.601971 0.130741 c 0.72749,0 1.322398,-0.59491 1.3224,-1.3224 v -0.26355 c -2e-6,-0.72749 -0.59491,-1.32447 -1.3224,-1.32447 h -5.293218 z"
           id="path1859" />
        <path
           style="color:#000000;fill:#fafcbd;fill-opacity:1;stroke-width:0.794878;stroke-linecap:round;stroke-linejoin:round;-inkscape-stroke:none"
           d="m 31.296799,255.91361 h 5.556766 c 0.441507,0 0.792715,0.35328 0.792718,0.79479 v 0.26355 c -3e-6,0.44151 -0.351211,0.79323 -0.792718,0.79323 -1.852255,0 -3.704511,0 -5.556766,0 z"
           id="path140868"
           sodipodi:nodetypes="csssccc" />
        <path
           id="path35379"
           style="color:#000000;fill:#e8cf76;fill-opacity:1;stroke-width:3.00427;stroke-linecap:round;stroke-linejoin:round;-inkscape-stroke:none"
           d="m 118.28711,-87.705078 v 3.416016 c 7.00065,0 14.0013,0 21.00195,0 1.66869,0 2.99608,-1.329348 2.9961,-2.998047 v -0.417969 z"
           transform="matrix(0.26458334,0,0,0.26458334,0,280.06666)"
           sodipodi:nodetypes="cccscc" />
        <path
           id="path1863"
           style="color:#000000;fill:#cca359;stroke-width:0.794878;stroke-linecap:round;stroke-linejoin:round;-inkscape-stroke:none"
           d="m 31.296799,256.57559 v 0.52917 h 1.33015 a 0.2645835,0.2645835 0 0 0 0.265618,-0.26562 0.2645835,0.2645835 0 0 0 -0.265618,-0.26355 z m 2.372981,0 a 0.2645835,0.2645835 0 0 0 -0.265617,0.26355 0.2645835,0.2645835 0 0 0 0.265617,0.26562 h 1.462961 a 0.2645835,0.2645835 0 0 0 0.265615,-0.26562 0.2645835,0.2645835 0 0 0 -0.265615,-0.26355 z" />
        <path
           style="color:#000000;fill:#50b86b;stroke-width:0.794878;stroke-linecap:round;stroke-linejoin:round;-inkscape-stroke:none"
           d="m 32.619141,257.76498 c -0.435247,0 -0.792981,0.35967 -0.792969,0.79492 v 0.39649 c 0,0.43524 0.357724,0.79297 0.792969,0.79297 h 5.55664 c 0.435245,0 0.792972,-0.35773 0.792969,-0.79297 v -0.39649 c 1e-5,-0.43525 -0.357722,-0.79492 -0.792969,-0.79492 z"
           id="path188899" />
        <path
           style="color:#000000;fill:#fca311;stroke-width:0.794878;stroke-linecap:round;stroke-linejoin:round;-inkscape-stroke:none"
           d="m 31.429606,259.22194 c -0.146125,-5.7e-4 -0.265045,0.11742 -0.265615,0.26355 2.83e-4,0.14633 0.119287,0.26464 0.265615,0.26407 h 0.263552 v 1.85311 h -0.263552 c -0.146328,-5.7e-4 -0.265332,0.11774 -0.265615,0.26407 -5.77e-4,0.14693 0.118681,0.26619 0.265615,0.26562 1.940106,0 3.880212,0 5.820318,0 0.72749,0 1.322395,-0.59698 1.322401,-1.32447 v -0.26355 c -6e-6,-0.72749 -0.594911,-1.3224 -1.322401,-1.3224 -1.940106,0 -3.880212,0 -5.820318,0 z"
           id="path3034"
           sodipodi:nodetypes="cccccccccsscc" />
        <path
           id="path22151"
           style="color:#000000;fill:#143441;fill-opacity:1;stroke-width:0.794878;stroke-linecap:round;stroke-linejoin:round;-inkscape-stroke:none"
           d="m 33.677533,251.81257 c -0.499237,0 -0.935226,0.28005 -1.160137,0.69091 0.187851,-0.10283 0.402714,-0.16174 0.63097,-0.16174 h 10.584365 c 0.727494,0 1.321885,0.59491 1.321885,1.3224 v 8.46666 h 0.265615 a 0.26460996,0.26460996 0 0 0 0.263552,-0.26355 v -8.73228 c 0,-0.72749 -0.594392,-1.3224 -1.321885,-1.3224 z" />
        <path
           id="path8138"
           style="color:#000000;fill:#87d1ee;stroke-width:3.00427;stroke-linecap:round;stroke-linejoin:round;-inkscape-stroke:none"
           d="m 155.58008,-92.238281 -4.24414,4.246093 c -0.39173,0.39073 -0.39173,1.025286 0,1.416016 0.39095,0.393035 1.02702,0.393035 1.41797,0 l 4.23632,-4.24414 c 0.39303,-0.39095 0.39303,-1.027019 0,-1.417969 -0.55899,-0.42964 -1.01544,-0.325156 -1.41015,0 z m 4.24609,1.417969 -7.07226,7.072265 c -0.38783,0.390056 -0.38783,1.0201 0,1.410156 0.39006,0.387823 1.02009,0.387823 1.41015,0 l 7.07032,-7.072265 c 0.38783,-0.390056 0.38783,-1.0201 0,-1.410156 -0.56084,-0.432532 -1.0511,-0.330402 -1.40821,0 z"
           transform="matrix(0.26458334,0,0,0.26458334,0,280.06666)"
           sodipodi:nodetypes="cccccccccccccc" />
        <path
           style="color:#000000;fill:#3a4d5c;fill-opacity:1;stroke-width:0.794878;stroke-linecap:round;stroke-linejoin:round;-inkscape-stroke:none"
           d="m 31.560547,261.60156 c -0.435243,0 -0.792972,0.35968 -0.792969,0.79492 v 0.26368 c 0,0.87362 0.714272,1.58789 1.587891,1.58789 h 13.228515 c 0.87362,0 1.587891,-0.71427 1.587891,-1.58789 v -0.26368 c 3e-6,-0.43524 -0.359678,-0.79492 -0.794922,-0.79492 z"
           id="path195843" />
        <path
           style="color:#000000;fill:#87d1ee;fill-opacity:1;stroke-width:0.794878;stroke-linecap:round;stroke-linejoin:round;-inkscape-stroke:none"
           d="m 36.587891,261.60156 v 0.79492 c 0,0.43524 0.359697,0.79297 0.794921,0.79297 h 3.173829 c 0.435224,0 0.794921,-0.35773 0.794921,-0.79297 v -0.79492 c -1.58789,0 -3.175781,0 -4.763671,0 z"
           id="path22149"
           sodipodi:nodetypes="ccssscc" />
        <path
           style="color:#000000;display:inline;fill:#87d1ee;fill-opacity:1;stroke-width:0.420623;stroke-linecap:round;stroke-linejoin:round;stroke-miterlimit:4;stroke-dasharray:none"
           d="m 35.794515,262.65962 a 0.2645835,0.2645835 0 0 0 -0.265625,0.26563 0.2645835,0.2645835 0 0 0 0.265625,0.26367 0.2645835,0.2645835 0 0 0 0.263671,-0.26367 0.2645835,0.2645835 0 0 0 -0.263671,-0.26563 z"
           id="path11712" />
        <path
           style="color:#000000;display:inline;fill:#87d1ee;fill-opacity:1;stroke-width:0.420623;stroke-linecap:round;stroke-linejoin:round;stroke-miterlimit:4;stroke-dasharray:none"
           d="m 42.144515,262.65962 a 0.2645835,0.2645835 0 0 0 -0.265625,0.26563 0.2645835,0.2645835 0 0 0 0.265625,0.26367 0.2645835,0.2645835 0 0 0 0.263672,-0.26367 0.2645835,0.2645835 0 0 0 -0.263672,-0.26563 z"
           id="path12073" />
        <path
           style="color:#000000;fill:#fafcbd;fill-opacity:1;stroke-width:0.794878;stroke-linecap:round;stroke-linejoin:round;-inkscape-stroke:none"
           d="m 31.693158,259.74956 h 5.556766 c 0.441507,0 0.793231,0.35327 0.793234,0.79478 v 0.26355 c -3e-6,0.44151 -0.351727,0.79478 -0.793234,0.79478 h -5.556766 z"
           id="path183907"
           sodipodi:nodetypes="csssscc" />
        <path
           id="path35483"
           style="color:#000000;fill:#e8cf76;fill-opacity:1;stroke-width:3.00427;stroke-linecap:round;stroke-linejoin:round;-inkscape-stroke:none"
           d="m 119.78516,-73.705078 v 3.919922 h 21.00195 c 1.66869,0 2.99803,-1.335207 2.99805,-3.003906 v -0.916016 z"
           transform="matrix(0.26458334,0,0,0.26458334,0,280.06666)" />
        <path
           id="path3595"
           style="color:#000000;fill:#cca359;fill-opacity:1;stroke-width:0.794878;stroke-linecap:round;stroke-linejoin:round;-inkscape-stroke:none"
           d="m 31.693158,260.41153 v 0.52917 h 1.332217 a 0.2645835,0.2645835 0 0 0 0.263551,-0.26355 0.2645835,0.2645835 0 0 0 -0.263551,-0.26562 z m 2.373497,0 a 0.2645835,0.2645835 0 0 0 -0.264067,0.26562 0.2645835,0.2645835 0 0 0 0.264067,0.26355 h 1.462443 a 0.2645835,0.2645835 0 0 0 0.265617,-0.26355 0.2645835,0.2645835 0 0 0 -0.265617,-0.26562 z" />
        <path
           style="color:#000000;fill:#fafcbd;fill-opacity:1;stroke-width:0.794878;stroke-linecap:round;stroke-linejoin:round;-inkscape-stroke:none"
           d="m 32.619141,258.29428 h 5.55664 c 0.149265,0 0.263676,0.11635 0.263672,0.26562 v 0.39649 c 10e-7,0.14925 -0.114413,0.26562 -0.263672,0.26562 h -5.55664 c -0.149257,0 -0.263672,-0.11636 -0.263672,-0.26562 v -0.39649 c -4e-6,-0.14926 0.114409,-0.26562 0.263672,-0.26562 z"
           id="path188905" />
        <path
           style="color:#000000;fill:#3a4d5c;fill-opacity:1;stroke-width:0.794878;stroke-linecap:round;stroke-linejoin:round;-inkscape-stroke:none"
           d="m 35.132812,256.57553 a 0.26460996,0.26460996 0 0 0 -0.263671,0.26367 v 2.64648 a 0.26460996,0.26460996 0 0 0 0.451171,0.1875 l 0.607422,-0.60742 0.605469,0.60742 a 0.26460996,0.26460996 0 0 0 0.451172,-0.1875 v -2.64648 a 0.26460996,0.26460996 0 0 0 -0.263672,-0.26367 z"
           id="path188707" />
        <path
           id="path23757"
           style="color:#000000;fill:#8ed1f7;fill-opacity:1;stroke-width:0.794878;stroke-linecap:round;stroke-linejoin:round;-inkscape-stroke:none"
           d="m 34.470764,252.8709 c -0.581194,0 -1.0565,0.4772 -1.056783,1.05834 h 8.994283 c 0.581372,0 1.058852,0.47749 1.058852,1.05885 v 6.08438 c 0.581137,-2.9e-4 1.058334,-0.47559 1.058334,-1.05678 v -6.08594 c 0,-0.58136 -0.477481,-1.05885 -1.058852,-1.05885 z" />
        <path
           id="path30199"
           style="color:#000000;fill:#143441;fill-opacity:1;stroke-width:0.794878;stroke-linecap:round;stroke-linejoin:round;-inkscape-stroke:none"
           d="m 31.560348,261.60164 c -0.355111,0 -0.658374,0.23923 -0.758093,0.56379 4.982134,-0.0808 10.038986,-0.0346 15.045593,-0.0346 0.435245,0 0.794787,0.35955 0.794784,0.79479 v 0.26355 c 0,0.30188 -0.08537,0.58485 -0.23306,0.82579 0.456295,-0.2797 0.762227,-0.78323 0.762227,-1.35496 v -0.26355 c 3e-6,-0.43524 -0.35954,-0.79478 -0.794784,-0.79478 z"
           sodipodi:nodetypes="cccsscsscc" />
      </g>
    </g>
  </g>
</svg>
