<svg width="5847" height="3294" viewBox="0 0 5847 3294" fill="none" xmlns="http://www.w3.org/2000/svg">
<g clip-path="url(#clip0_1063_1856)">
<rect x="622" y="685" width="50" height="50" fill="#D9D9D9"/>
<rect x="622" y="952" width="50" height="50"  fill="#D9D9D9"/>
<rect x="622" y="1254" width="50" height="50"  fill="#D9D9D9"/>
<rect x="622" y="1530" width="50" height="50"  fill="#D9D9D9"/>
<rect x="622" y="1877" width="50" height="50"  fill="#D9D9D9"/>
<rect x="962" y="1955" width="50" height="50"  fill="#D9D9D9"/>
<rect x="962" y="2265" width="50" height="50"  fill="#D9D9D9"/>
<rect x="962" y="2963" width="50" height="50"  fill="#D9D9D9"/>
<rect x="962" y="2633" width="50" height="50"  fill="#D9D9D9"/>
<rect x="2607" y="3018" width="50" height="50"  fill="#D9D9D9"/>
<rect x="2607" y="2633" width="50" height="50"  fill="#D9D9D9"/>
<rect x="1406" y="2482" width="50" height="50"  fill="#D9D9D9"/>
<rect x="2203" y="1851" width="50" height="50"  fill="#D9D9D9"/>
<rect x="1406" y="984" width="50" height="50"  fill="#D9D9D9"/>
<rect x="2203" y="1315" width="50" height="50"  fill="#D9D9D9"/>
<rect x="2540" y="1851" width="50" height="50"  fill="#D9D9D9"/>
<rect x="5572" y="2604" width="50" height="50"  fill="#D9D9D9"/>
<rect x="5227" y="2604" width="50" height="50"  fill="#D9D9D9"/>
<rect x="4456" y="2604" width="50" height="50"  fill="#D9D9D9"/>
<rect x="4838" y="2604" width="50" height="50"  fill="#D9D9D9"/>
<rect x="3693" y="3018" width="50" height="50"  fill="#D9D9D9"/>
<rect x="3314" y="3018" width="50" height="50"  fill="#D9D9D9"/>
<rect x="2905" y="3018" width="50" height="50"  fill="#D9D9D9"/>
<rect x="2797" y="1851" width="50" height="50"  fill="#D9D9D9"/>
<rect x="3276" y="1688" width="50" height="50"  fill="#D9D9D9"/>
<rect x="3276" y="1011" width="50" height="50"  fill="#D9D9D9"/>
<rect x="3276" y="1414" width="50" height="50"  fill="#D9D9D9"/>
<rect x="4503" y="1364" width="50" height="50"  fill="#D9D9D9"/>
<rect x="4496" y="1061" width="50" height="50"  fill="#D9D9D9"/>
<rect x="3531" y="1162" width="50" height="50" fill="#D9D9D9"/>
<rect x="3012" y="1198" width="50" height="50"  fill="#D9D9D9"/>
<rect x="4984" y="267" width="50" height="50"  fill="#D9D9D9"/>
<rect x="4984" y="578" width="50" height="50"  fill="#D9D9D9"/>
<rect x="4984" y="828" width="50" height="50"  fill="#D9D9D9"/>
<rect x="4984" y="1199" width="50" height="50"  fill="#D9D9D9"/>
<rect x="4984" y="1458" width="50" height="50"  fill="#D9D9D9"/>
<rect x="962" y="685" width="50" height="50"  fill="#D9D9D9"/>
<rect x="1406" y="685" width="50" height="50"  fill="#D9D9D9"/>
<rect x="2203" y="685" width="50" height="50"  fill="#D9D9D9"/>
<rect x="2736" y="685" width="50" height="50"  fill="#D9D9D9"/>
<rect x="3276" y="685" width="50" height="50"  fill="#D9D9D9"/>
</g>
<defs>
<clipPath id="clip0_1063_1856">
    <!--
<rect width="3294" height="5847" fill="white" transform="translate(5847) rotate(90)"/>
-->
</clipPath>
</defs>
</svg>
