<?xml version="1.0" encoding="utf-8"?>
<!-- Generator: Adobe Illustrator 18.1.1, SVG Export Plug-In . SVG Version: 6.00 Build 0)  -->
<svg version="1.1" id="walls" xmlns="http://www.w3.org/2000/svg" xmlns:xlink="http://www.w3.org/1999/xlink" x="0px" y="0px"
	 viewBox="2124 -1197 5847 3294" enable-background="new 2124 -1197 5847 3294" xml:space="preserve">
<rect x="2269.9" y="-1121.5" fill="#FF0000" width="503.5" height="524.7"/>
<rect x="2269.9" y="-612.9" fill="#FF0000" width="320" height="376"/>
<rect x="2269.9" y="-252.9" fill="#FF0000" width="45.8" height="679.5"/>
<rect x="2529.4" y="370.1" fill="#FF0000" width="45.8" height="821.4"/>
<rect x="2932.9" y="1173.6" fill="#FF0000" width="45.8" height="805.8"/>
<rect x="2908" y="-1072" fill="#FF0000" width="148.9" height="445.1"/>
<rect x="3300.5" y="-1072" fill="#FF0000" width="156.9" height="445.1"/>
<rect x="3691.1" y="-1072" fill="#FF0000" width="155.3" height="445.1"/>
<rect x="4015" y="-1072" fill="#FF0000" width="85.5" height="445.1"/>
<rect x="4444" y="-1072" fill="#FF0000" width="156.7" height="445.1"/>
<rect x="4836" y="-1072" fill="#FF0000" width="153" height="445.1"/>
<rect x="5197" y="-1072" fill="#FF0000" width="153" height="445.1"/>
<rect x="5545" y="-1072" fill="#FF0000" width="84.9" height="445.1"/>
<rect x="5940.5" y="-1072" fill="#FF0000" width="154.5" height="445.1"/>
<rect x="6331.1" y="-1072" fill="#FF0000" width="156.9" height="445.1"/>
<rect x="6724.1" y="-1072" fill="#FF0000" width="150.9" height="445.1"/>
<rect x="7300.3" y="-1072" fill="#FF0000" width="518.7" height="107"/>
<rect x="7298.5" y="-740.4" fill="#FF0000" width="520.5" height="155"/>
<rect x="7298.5" y="-360.7" fill="#FF0000" width="520.5" height="156.8"/>
<rect x="7298.5" y="21.9" fill="#FF0000" width="520.5" height="151.1"/>
<rect x="6336" y="681.6" fill="#FF0000" width="141" height="454.4"/>
<rect x="6336" y="640.6" fill="#FF0000" width="430.4" height="56.6"/>
<rect x="5574.2" y="640.6" fill="#FF0000" width="500.5" height="56.6"/>
<rect x="2932.9" y="1935.5" fill="#FF0000" width="4915.8" height="43.9"/>
<rect x="4193" y="438.1" fill="#FF0000" width="681.6" height="42.1"/>
<rect x="2861" y="452" fill="#FF0000" width="424.2" height="28.3"/>
<rect x="2861" y="-379" fill="#FF0000" width="424.2" height="28.3"/>
<rect x="2861" y="-364.9" fill="#FF0000" width="23" height="363.2"/>
<rect x="2858.8" y="146.6" fill="#FF0000" width="26.2" height="334.1"/>
<rect x="4167" y="821.1" fill="#FF0000" width="102.9" height="42.1"/>
<rect x="4404" y="821.1" fill="#FF0000" width="138.9" height="42.1"/>
<rect x="5931.1" y="681.6" fill="#FF0000" width="146.9" height="460.4"/>
<rect x="5555.8" y="681.6" fill="#FF0000" width="158.7" height="460.4"/>
<rect x="5327.8" y="633.6" fill="#FF0000" width="65.8" height="585.1"/>
<rect x="5538.1" y="1172.4" fill="#FF0000" width="50.5" height="56.5"/>
<rect x="6300.7" y="1172.4" fill="#FF0000" width="50.5" height="56.5"/>
<rect x="7052.7" y="1172.4" fill="#FF0000" width="50.5" height="56.5"/>
<rect x="7040.7" y="-366.2" fill="#FF0000" width="50.5" height="56.5"/>
<rect x="7798.2" y="828.4" fill="#FF0000" width="50.5" height="1140.1"/>
<rect x="7549.1" y="828.4" fill="#FF0000" width="266.6" height="398.1"/>
<rect x="7051.1" y="399.5" fill="#FF0000" width="811.8" height="443.5"/>
<rect x="2739.6" y="-1121.5" fill="#FF0000" width="5123.3" height="65.9"/>
<rect x="7805.2" y="-1121.5" fill="#FF0000" width="57.7" height="1530.7"/>
<rect x="6303.7" y="-366.2" fill="#FF0000" width="50.5" height="56.5"/>
<rect x="6324" y="-318.2" fill="#FF0000" width="30.2" height="711.2"/>
<rect x="5519.7" y="-366.2" fill="#FF0000" width="50.5" height="56.5"/>
<rect x="5524.7" y="383.8" fill="#FF0000" width="50.5" height="56.5"/>
<rect x="4783.7" y="383.8" fill="#FF0000" width="55.3" height="56.5"/>
<rect x="4783.7" y="-375.2" fill="#FF0000" width="55.3" height="65.4"/>
<rect x="3997.4" y="-375.2" fill="#FF0000" width="55.3" height="65.4"/>
<rect x="3245.2" y="379.3" fill="#FF0000" width="55.3" height="65.4"/>
<rect x="3272.8" y="1164.8" fill="#FF0000" width="55.3" height="65.4"/>
<rect x="4001" y="1164.8" fill="#FF0000" width="55.3" height="65.4"/>
<rect x="4781" y="1164.8" fill="#FF0000" width="55.3" height="65.4"/>
<rect x="4822" y="1185.7" fill="#FF0000" width="35.1" height="791.4"/>
<rect x="2305.2" y="370.1" fill="#FF0000" width="235.5" height="56.5"/>
<rect x="2529.4" y="1169.3" fill="#FF0000" width="448.8" height="56.5"/>
<rect x="3245.2" y="-375.2" fill="#FF0000" width="55.3" height="65.4"/>
<rect x="3270" y="-319.7" fill="#FF0000" width="30.5" height="394.7"/>
<rect x="6345.7" y="-366.2" fill="#FF0000" width="327.3" height="15.2"/>
<rect x="5569.8" y="-366.4" fill="#FF0000" width="738.2" height="7.6"/>
<rect x="4863" y="-366.4" fill="#FF0000" width="406.9" height="7.6"/>
<rect x="4171" y="-379" fill="#FF0000" width="703.6" height="7.6"/>
<rect x="3220" y="-379" fill="#FF0000" width="832.6" height="7.6"/>
<rect x="3199.3" y="1185.4" fill="#FF0000" width="1416.7" height="12.3"/>
<rect x="4729" y="1185.4" fill="#FF0000" width="69" height="12.3"/>
<rect x="2978.1" y="1185.6" fill="#FF0000" width="110.6" height="12"/>
<rect x="5569.8" y="432.1" fill="#FF0000" width="586.2" height="6"/>
<rect x="4863" y="449" fill="#FF0000" width="407.6" height="6"/>
<rect x="5528.7" y="306.6" fill="#FF0000" width="6" height="86.4"/>
<rect x="5528.7" y="45.4" fill="#FF0000" width="6" height="177.6"/>
<rect x="5264.6" y="45.4" fill="#FF0000" width="6" height="177.6"/>
<rect x="5264.6" y="334.8" fill="#FF0000" width="6" height="120.2"/>
<rect x="5264.6" y="-366.3" fill="#FF0000" width="6" height="308.8"/>
<rect x="5527.3" y="-318.2" fill="#FF0000" width="8.9" height="260.7"/>
<rect x="6299.7" y="383.8" fill="#FF0000" width="50.5" height="56.5"/>
<rect x="5952.3" y="145" fill="#FF0000" width="35.3" height="295.2"/>
<rect x="4834.3" y="-379" fill="#FF0000" width="40.4" height="819.2"/>
<rect x="4167" y="62" fill="#FF0000" width="46.2" height="770"/>
<rect x="3269.9" y="57.2" fill="#FF0000" width="767.1" height="802.3"/>
<rect x="4496.7" y="471" fill="#FF0000" width="46.2" height="361"/>
<rect x="5531.8" y="120.7" fill="#FF0000" width="797.6" height="30.6"/>
<rect x="4863" y="120.7" fill="#FF0000" width="404.6" height="30.6"/>
<rect x="6282.7" y="430" fill="#FF0000" width="50.5" height="10.2"/>
<rect x="6712.3" y="681.6" fill="#FF0000" width="75.3" height="454.4"/>
<rect x="5119.1" y="1198.9" fill="#FF0000" width="234" height="19.8"/>
<rect x="4844.6" y="1403" fill="#FF0000" width="93.5" height="532.5"/>
<rect x="5156.5" y="1532.4" fill="#FF0000" width="158.1" height="403.1"/>
<rect x="5544" y="1532.4" fill="#FF0000" width="156.5" height="403.1"/>
<rect x="5926.4" y="1532.4" fill="#FF0000" width="151.6" height="403.1"/>
<rect x="6321.7" y="1532.4" fill="#FF0000" width="155.3" height="403.1"/>
<rect x="6693.5" y="1532.4" fill="#FF0000" width="153.5" height="403.1"/>
<rect x="7088.8" y="1532.4" fill="#FF0000" width="155.3" height="403.1"/>
<rect x="7474.6" y="1532.4" fill="#FF0000" width="148.9" height="403.1"/>
<rect x="4121.7" y="-1072" fill="#FF0000" width="87.1" height="445.1"/>
<rect x="4097.7" y="-1072" fill="#FF0000" width="26" height="489.3"/>
<rect x="5626.9" y="-1072" fill="#FF0000" width="26" height="489.3"/>
<rect x="5651.1" y="-1072" fill="#FF0000" width="82.4" height="445.1"/>
</svg>
